<svg version="1.1" id="Layer_1" xmlns="http://www.w3.org/2000/svg" xmlns:xlink="http://www.w3.org/1999/xlink" x="0px" y="0px" width="801.066px" height="693.366px" viewBox="-0.33 -1.116 801.066 693.366">
	<path fill="#fcc" d="M1.546,186.552V-1.116h63.807c43.968,0,71.314,28.687,71.314,93.834c0,65.416-27.347,93.834-71.314,93.834
		H1.546z M31.037,158.401h34.315c14.746,0,25.469-4.558,31.904-13.673c6.702-9.383,9.919-26.542,9.919-52.011
		c-1.072-53.083-12.601-65.685-41.823-65.685H31.037V158.401z"></path>
	<path fill="#fcc" d="M177.148,186.552V-1.116h116.086v28.149h-86.595v46.649h78.82v28.149h-78.82V158.4h86.595v28.15
		L177.148,186.552L177.148,186.552z"></path>
	<path fill="#fcc" d="M359.183,125.426V98.615h77.479v26.811H359.183z"></path>
	<path fill="#fcc" d="M136.131,379.213c-1.877,18.498-8.847,33.513-20.645,45.041c-11.797,11.527-26.81,17.157-45.041,17.157
		c-21.179,0-38.337-8.043-51.475-24.129C6.104,400.929-0.33,376.531-0.33,343.556c0-32.977,6.435-57.373,19.303-73.458
		C32.11,253.743,49.268,245.7,70.447,245.7c18.231,0,33.244,5.898,45.041,17.426c11.797,11.528,18.768,26.274,20.645,44.772
		l-26.811,4.826c-2.948-26.005-15.817-38.874-38.875-38.874c-14.209,0-24.664,5.094-31.366,15.55s-9.919,28.418-9.919,54.155
		c0,25.47,3.217,43.699,9.919,54.154c6.703,10.456,17.157,15.551,31.366,15.551c24.397,0,36.462-15.281,38.875-38.874
		L136.131,379.213z"></path>
	<path fill="#fcc" d="M180.096,417.282c-12.869-16.354-19.303-40.751-19.303-73.727c0-32.977,6.434-57.373,19.303-73.458
		c13.137-16.354,30.295-24.397,51.475-24.397c43.164,0,71.046,32.172,71.046,97.855c0,65.683-27.882,97.854-71.046,97.854
		C210.391,441.411,193.233,433.368,180.096,417.282z M263.207,397.711c6.702-10.455,9.919-28.418,9.919-54.154
		c0-25.737-3.217-43.7-9.919-54.155c-6.703-10.456-17.158-15.55-31.637-15.55c-14.209,0-24.665,5.094-31.366,15.55
		c-6.703,10.456-9.919,28.418-9.919,54.155c0,25.47,3.217,43.699,9.919,54.154c6.702,10.456,17.157,15.551,31.366,15.551
		C246.049,413.261,256.504,408.167,263.207,397.711z"></path>
	<path fill="#fcc" d="M333.178,437.39V249.722h27.882l36.193,101.341l37.533-101.341h28.15V437.39h-29.491V308.971
		l-25.469,65.147h-20.645l-24.664-65.147V437.39H333.178z"></path>
	<path fill="#fcc" d="M525.401,376.264v-26.811h77.48v26.811H525.401z"></path>
	<path fill="#fcc" d="M7.713,688.229V500.561h68.9c15.818,0,29.224,5.63,40.215,16.891c11.26,10.991,16.89,24.664,16.89,40.482
		c0,16.354-5.362,30.026-16.354,41.287c-10.724,10.991-24.396,16.622-40.75,16.622H37.204v72.386H7.713z M37.203,587.693h39.409
		c16.087,0,27.614-13.405,27.614-29.759c0-18.499-12.601-29.223-27.614-29.223H37.203V587.693z"></path>
	<path fill="#fcc" d="M174.735,688.229V500.561h63.539c15.281,0,28.15,5.362,39.143,16.086
		c10.991,10.456,16.621,23.593,16.621,39.144c0,30.025-21.18,45.844-29.49,49.328l-3.485,1.609l38.606,81.501h-31.903
		l-36.729-77.212h-26.811v77.212H174.735z M204.225,582.866h34.048c7.775,0,26.273-3.484,26.273-26.541
		c0-17.157-12.064-27.613-26.273-27.613h-34.048V582.866L204.225,582.866z"></path>
	<path fill="#fcc" d="M343.365,688.229V500.561h116.086v28.15h-86.596v46.647h78.821v28.15h-78.821v56.567h86.596v28.15H343.365
		V688.229z"></path>
	<path fill="#fcc" d="M521.916,619.06c1.072,8.311,1.608,12.868,5.63,22.521c5.63,12.868,16.622,21.717,39.678,22.521
		c22.252,0,37.802-9.919,37.802-29.49c0-17.427-10.724-26.542-38.874-33.779c-19.839-5.095-35.121-11.798-45.577-19.571
		c-10.456-7.774-15.549-19.571-15.549-35.121c0-13.673,5.362-25.2,15.817-34.854c10.724-9.919,25.469-14.744,44.235-14.744
		c32.439,0,56.301,17.963,64.075,49.329l-27.346,5.631c-5.362-17.963-17.694-26.811-36.729-26.811c-19.303,0-31.1,9.651-31.1,21.447
		c1.073,9.652,5.362,14.478,16.89,19.571c4.021,1.877,7.508,3.218,10.456,4.021c2.949,0.805,7.506,2.146,13.138,4.021l11.796,3.754
		c2.413,0.804,6.166,2.145,11.527,4.289c10.725,4.29,13.674,6.971,21.181,13.404c10.724,8.848,14.477,20.911,15.55,39.41
		c0,17.158-6.167,31.1-18.499,41.823c-12.064,10.455-28.418,15.817-48.793,15.817c-26.542,0-46.381-9.651-56.836-23.86
		c-9.919-14.746-15.015-28.419-16.354-44.504L521.916,619.06z"></path>
	<path fill="#fcc" d="M688.135,619.06c1.072,8.311,1.607,12.868,5.63,22.521c5.63,12.868,16.622,21.717,39.679,22.521
		c22.252,0,37.801-9.919,37.801-29.49c0-17.427-10.724-26.542-38.873-33.779c-19.84-5.095-35.12-11.798-45.576-19.571
		c-10.456-7.774-15.55-19.571-15.55-35.121c0-13.673,5.362-25.2,15.817-34.854c10.724-9.919,25.469-14.744,44.236-14.744
		c32.439,0,56.301,17.963,64.074,49.329l-27.346,5.631c-5.361-17.963-17.693-26.811-36.729-26.811c-19.303,0-31.1,9.651-31.1,21.447
		c1.072,9.652,5.361,14.478,16.891,19.571c4.021,1.877,7.507,3.218,10.456,4.021c2.948,0.805,7.507,2.146,13.137,4.021l11.796,3.754
		c2.413,0.804,6.166,2.145,11.528,4.289c10.724,4.29,13.673,6.971,21.18,13.404c10.724,8.848,14.479,20.911,15.55,39.41
		c0,17.158-6.166,31.1-18.499,41.823c-12.063,10.455-28.418,15.817-48.793,15.817c-26.542,0-46.381-9.651-56.837-23.86
		c-9.92-14.746-15.014-28.419-16.354-44.504L688.135,619.06z"></path>

</svg>
