<?xml version="1.0" encoding="utf-8"?>
<!-- Generator: Adobe Illustrator 16.0.0, SVG Export Plug-In . SVG Version: 6.00 Build 0)  -->
<!DOCTYPE svg PUBLIC "-//W3C//DTD SVG 1.1//EN" "http://www.w3.org/Graphics/SVG/1.1/DTD/svg11.dtd">
<svg version="1.1" id="Layer_1" xmlns="http://www.w3.org/2000/svg" xmlns:xlink="http://www.w3.org/1999/xlink" x="0px" y="0px"
	 width="354px" height="354px" viewBox="0 0 354 354" enable-background="new 0 0 354 354" xml:space="preserve">
<rect x="1.5" y="1.5" fill="none" stroke="#fff" stroke-width="3" width="351" height="351"/>
<g>
	<path fill="#fff" d="M190.474,53.821c-2.159-12.06-6.659-19.8-16.739-19.619c-11.34,0.18-14.76,5.76-14.76,21.599v93.057
		h-14.759V55.081c0-23.759,9.54-34.379,29.698-34.919c17.82-0.18,28.079,11.7,30.959,29.699L190.474,53.821z"/>
	<path fill="#fff" d="M103.354,69.301c-1.8-12.24-5.22-21.239-10.259-26.819c-5.22-5.58-13.5-8.279-25.199-8.279
		c-18.719,0-28.439,9.539-28.439,21.778c0,5.94,2.16,10.8,6.48,14.22s13.679,7.56,28.259,12.42
		c27.899,8.819,39.059,18.359,39.059,35.818c0,9.18-3.6,16.919-10.62,23.399c-7.2,6.479-16.919,9.719-28.979,9.719
		c-23.759,0-40.858-11.879-43.918-34.738l15.119-3.24c2.88,15.3,10.8,23.76,28.799,23.76c15.839,0,24.479-8.1,24.479-18.899
		c0-4.86-1.98-8.64-5.76-11.699c-3.78-3.061-12.419-6.66-25.559-10.979c-16.74-5.4-27.899-10.8-33.659-16.38
		s-8.64-13.14-8.64-22.679c0-10.26,3.959-19.079,11.699-26.1c7.74-7.02,18.54-10.439,32.219-10.439
		c29.879,0,46.798,15.3,50.578,46.078L103.354,69.301z"/>
</g>
<rect fill="none" width="354" height="354"/>
</svg>
