<svg width="600" height="142" viewBox="0 0 600 142" xmlns="http://www.w3.org/2000/svg"><title>99designs wordmark</title><path d="M597.81 53.723c-1.03-14.044-11.983-22.548-27.444-22.548-14.43 0-27.702 9.148-27.702 23.32 0 8.376 4.768 15.462 22.806 21.003 10.694 3.35 13.142 5.41 13.142 9.405 0 3.35-3.737 5.54-7.473 5.54-4.26 0-7.48-2.06-8.12-6.57h-21.26c1.54 14.56 13.01 23.707 29.12 23.707 16.23 0 29.12-9.406 29.12-24.352 0-10.436-5.54-17.265-22.55-21.774-9.92-2.577-13.4-4.51-13.4-8.375 0-2.71 2.57-4.77 6.18-4.77 3.48 0 6.44 1.29 6.57 5.41h21zM471.136 105.25h21.412V65.19c0-9.378 4.046-14.065 12.138-14.065 3.9 0 6.73 1.193 8.488 3.587 1.762 2.39 2.64 6.177 2.64 11.342v39.195h21.417V60.31c0-2.872-.12-5.385-.35-7.543-.24-2.15-.62-4.07-1.15-5.74a18.356 18.356 0 0 0-2.13-4.596c-.9-1.38-2.07-2.75-3.49-4.09-2.28-2.29-5.09-4.09-8.42-5.38s-6.9-1.94-10.7-1.94c-4.57 0-8.35.79-11.35 2.37-2.99 1.59-5.73 4.15-8.21 7.69v-7.61h-20.27v71.79zm-45.88-14.085c-8.682-1.358-8.49-4.83-6.388-6.518 19.734 7.522 43.83-2.026 43.98-24.917-.048-8.387-3.027-13.737-5.32-16.205 1.806-3.466 3.877-5.204 8.32-6.277l-9.027-15.613c-8.13.7-13.49 5.72-15.93 10.88-4.8-1.964-14.65-2.195-22.51.614-3.77 1.34-7.26 3.26-10.27 5.93a26.75 26.75 0 0 0-6.74 9.08c-1.68 3.65-2.41 7.56-2.43 11.57.05 5.46 1.76 11.95 4.94 16.38-8.6 8.52-8.12 21.15.79 29.15a20.667 20.667 0 0 0-2.62 2.38c-8.05 8.79-4.24 21 5.01 27.42 11.69 8.38 32.45 8.87 45.22 3.2 22.44-9.13 23.25-42.56-2.8-46.93-7.25-1.22-15.5 1.18-24.18-.17zm20.76 28.87c-2.447 3.338-7.09 4.505-10.972 4.692-4.564.22-10.776-.83-13.896-4.582-3.003-3.613-2.3-8.64 1.758-11.113a9.55 9.55 0 0 1 3.722-1.34h10.64c4.648 0 10.536 1.314 10.498 7.085-.008 1.82-.673 3.79-1.75 5.258zm-14.905-72.79c6.51 0 11.78 5.306 11.78 11.846s-5.27 11.85-11.78 11.85c-6.5 0-11.77-5.3-11.77-11.84s5.28-11.84 11.78-11.84zm-40.89 58.005h-21.41V33.468h21.41v71.787zm-10.71-79.312c7.09 0 12.83-5.778 12.83-12.898S386.6.14 379.51.14s-12.828 5.78-12.828 12.9 5.74 12.897 12.824 12.897zm-18.61 27.79c-1.03-14.045-11.98-22.55-27.44-22.55-14.43 0-27.7 9.15-27.7 23.322 0 8.374 4.77 15.46 22.81 21 10.7 3.35 13.14 5.41 13.14 9.405 0 3.35-3.73 5.54-7.47 5.54-4.25 0-7.47-2.06-8.11-6.57h-21.26c1.55 14.56 13.02 23.707 29.12 23.707 16.24 0 29.12-9.404 29.12-24.35 0-10.436-5.54-17.265-22.54-21.774-9.92-2.577-13.4-4.51-13.4-8.375 0-2.706 2.58-4.767 6.19-4.767 3.48 0 6.443 1.288 6.57 5.41h21zm-61.81.985c-1.9-4.78-4.54-8.922-7.92-12.416-3.37-3.495-7.37-6.244-11.99-8.258-4.61-2.01-9.59-3.02-14.92-3.02-5.14 0-9.96 1-14.49 3.01-4.51 2.01-8.44 4.73-11.77 8.18-3.33 3.44-5.97 7.51-7.92 12.2-1.95 4.69-2.92 9.71-2.92 15.07 0 5.35.97 10.35 2.93 14.99 1.95 4.65 4.62 8.69 7.99 12.134 3.38 3.445 7.36 6.15 11.92 8.11 4.57 1.964 9.47 2.945 14.71 2.945 7.62 0 14.468-2.207 20.558-6.61 5.83-4.21 10.39-9.95 13.69-17.22h-22.26c-2.28 2.2-4.372 3.68-6.28 4.444-1.9.77-4.182 1.15-6.85 1.15-4.28 0-7.855-1.22-10.706-3.66-2.86-2.44-4.524-5.67-4.995-9.687h53.53c1.128-7.25.46-14.5-2.283-21.4zm-50.67 7.04c.86-4.024 2.7-7.112 5.5-9.265 2.81-2.15 6.31-3.228 10.5-3.228s7.73 1.15 10.63 3.447c2.91 2.293 4.74 5.31 5.5 9.045h-32.12zM72.67 22.303a38.866 38.866 0 0 1 1.625-3.153C84.8.834 108.085-5.44 126.29 5.136c18.21 10.572 24.447 33.992 13.936 52.306l-27.472 47.86h-24.79l16.56-28.853c-5.57-.4-11.138-2-16.3-4.99a38.048 38.048 0 0 1-15.557-17.17 38.855 38.855 0 0 1-1.623 3.15L43.57 105.3H18.78l16.56-28.85c-5.57-.397-11.138-1.996-16.3-4.99C.835 60.882-5.406 37.467 5.108 19.15 15.618.836 38.902-5.438 57.11 5.138a38.03 38.03 0 0 1 15.555 17.166zM200.892 2.19v37.13c-2.956-2.884-6.102-5.016-9.442-6.412-3.34-1.392-7.255-2.086-11.738-2.086-5.056 0-9.754.965-14.094 2.88-4.345 1.922-8.084 4.583-11.238 7.993-3.146 3.4-5.623 7.458-7.44 12.162-1.813 4.7-2.717 9.785-2.717 15.26 0 5.66.883 10.842 2.645 15.546 1.767 4.696 4.248 8.75 7.445 12.16 3.196 3.408 6.99 6.065 11.376 7.99 4.39 1.92 9.2 2.877 14.45 2.877 4.96 0 9.13-.787 12.52-2.374 3.38-1.582 6.51-4.15 9.37-7.703v7.63h20.32V2.193h-21.47zm-4.008 80.163c-3.432 3.457-7.823 5.187-13.164 5.187-2.574 0-4.984-.457-7.226-1.37-2.24-.91-4.147-2.18-5.724-3.817-1.573-1.628-2.814-3.57-3.722-5.825-.91-2.26-1.36-4.73-1.36-7.412 0-2.593.45-5.017 1.36-7.272.908-2.255 2.17-4.17 3.794-5.757 1.62-1.583 3.554-2.83 5.795-3.74 2.242-.914 4.698-1.37 7.37-1.37 2.573 0 4.962.456 7.157 1.37 2.192.91 4.1 2.183 5.72 3.816a17.567 17.567 0 0 1 3.794 5.68c.908 2.163 1.363 4.536 1.363 7.125 0 5.475-1.72 9.938-5.15 13.385zM92.2 29.553c4.802-8.364 15.434-11.233 23.753-6.4 8.315 4.826 11.163 15.524 6.364 23.888-4.803 8.37-15.436 11.24-23.755 6.41-8.315-4.83-11.167-15.53-6.363-23.89zm-69.184 0c4.803-8.364 15.435-11.233 23.755-6.4 8.32 4.826 11.17 15.524 6.37 23.888-4.81 8.37-15.44 11.24-23.76 6.41-8.31-4.83-11.16-15.53-6.36-23.89z" fill="#222" fill-rule="evenodd"/></svg>
